<svg id="Lager_1" data-name="Lager 1" xmlns="http://www.w3.org/2000/svg" viewBox="0 0 366.85 54"><defs><style>.cls-1{fill:gold;}.cls-2{fill:red;}</style></defs><path class="cls-1" d="M60.68.08h20.8l-70,174H-8.92Z"/><path class="cls-1" d="M94.72.08h20.8l-70,174H25.12Z"/><path class="cls-1" d="M128.76.08h20.8l-70,174H59.17Z"/><path class="cls-1" d="M162.81.08h20.8l-70,174H93.21Z"/><path class="cls-1" d="M230.89.08h20.8l-70,174h-20.4Z"/><path class="cls-1" d="M264.93.08h20.8l-70,174h-20.4Z"/><path class="cls-1" d="M299,.08h20.8l-70,174h-20.4Z"/><path class="cls-1" d="M333,.08h20.8l-70,174h-20.4Z"/><path class="cls-2" d="M223.58,88.8H210.32L164.81-24.3h13.52Z"/><path class="cls-1" d="M196.85.08h20.8l-70,174h-20.4Z"/></svg>